<?xml version="1.0" encoding="utf-8"?>
<!-- Generator: Adobe Illustrator 15.0.0, SVG Export Plug-In . SVG Version: 6.00 Build 0)  -->
<!DOCTYPE svg PUBLIC "-//W3C//DTD SVG 1.1//EN" "http://www.w3.org/Graphics/SVG/1.1/DTD/svg11.dtd">
<svg version="1.1" id="Layer_1" xmlns="http://www.w3.org/2000/svg" xmlns:xlink="http://www.w3.org/1999/xlink" x="0px" y="0px"
	 width="4680px" height="1582.577px" viewBox="0 0 4680 1582.577" enable-background="new 0 0 4680 1582.577" xml:space="preserve">
<g display="none">
	<rect fill="#E7F5F3" width="4679.078" height="1581.577"/>
</g>
<path fill-rule="evenodd" clip-rule="evenodd" fill="none" stroke="#000000" stroke-width="4.1409" stroke-linecap="round" stroke-linejoin="round" d="
	M4622.136,1266.579c-11.047,0-22.082,0-33.128,0c-15.752-6.088-0.812,18.51-16.564,12.422c-14.869-1.049-7.814-24.26-8.282-37.27
	c-0.58-16.393,0.452-36.684,0-49.688c-11.904-11.561-49.934,3.006-62.109-8.283c0-26.225,0-52.455,0-78.674
	c-12.381-8.328-39.071-2.343-57.978-4.145c-9.5,53.995-1.495,125.489-4.139,186.342c-15.183,0-30.366,0-45.549,0
	c-0.844-12.957,2.792-30.4-4.138-37.27c-37.271,0-74.54,0-111.808,0c0-12.422,0-24.846,0-37.268
	c-1.725-9.32-22.707,0.619-20.704-12.424c0-53.833,0-107.661,0-161.494c-19.386-9.6-56.548-1.428-82.821-4.141
	c-9.643,42.807-1.392,103.504-4.14,153.21c-13.798,0-27.604,0-41.408,0c-13.301,12.27,7.707,61.404-12.424,62.115
	c-21.79,0.615-11.852-30.221-12.423-41.408c-2.86-56.24,2.175-119.288,0-169.777c-21.4-1.166-20.504-20.773-20.701-33.127
	c-12.424,0-24.846,0-37.27,0c-9.182,8.764,3.866,39.753-24.846,28.986c-2.885,69.444,3.848,155.076,0,219.466
	c-0.327,5.51,6.314,25.723-8.279,24.846c-19.531,4.393-11.712-19.926-12.422-28.986c-3.225-41.117,2.451-88.516,0-124.226
	c-24.892-9.614-67.604-1.411-99.385-4.141c0,81.441,0,162.873,0,244.314c-8.886,7.674-30.332,2.793-45.548,4.139
	c0-46.93,0-93.857,0-140.793c-11.909-11.561-49.94,3.01-62.117-8.277c0-22.084,0-44.172,0-66.256
	c-34.531-9.636-86.937-1.4-128.364-4.139c-9.641,40.045-1.396,97.982-4.143,144.928c-11.045,0-22.086,0-33.125,0
	c-9.592-88.406-1.434-194.567-4.146-289.861c3.702-13.369-13.507-5.818-16.562-12.423c-2.597-12.588,5.3-35.667-4.14-41.409
	c-19.351-0.026,0.059,38.711-12.424,45.55c-23.662-8.023-40.392,6.486-70.395-4.142c-9.536,62.236-1.475,142.075-4.138,211.188
	c-20.709,0-41.41,0-62.117,0c-9.337,3.082-1.62,23.227-4.139,33.125c-11.047,0-22.088,0-33.132,0c0,13.803,0,27.609,0,41.408
	c-12.952,0.844-30.399-2.791-37.267,4.139c-0.362,9.775,0.469,23.396,0,37.27c-0.394,11.664,6.131,34.002-8.279,33.131
	c-17.695,5.375-11.381-12.818-12.424-20.707c-4.863-36.564,3.705-80.727,0-111.803c-15.271-9.582-48.245-1.443-70.399-4.139
	c-0.669,17.432,0.886,40.717,0,62.109c-0.812,19.812,8.155,47.432-12.419,49.691c-16.575,1.963-11.237-14.809-12.422-24.846
	c-4.658-39.506,3.559-84.709,0-120.086c-28.984,0-57.97,0-86.962,0c-9.358,36.193-1.604,89.494-4.139,132.51
	c-15.187,0-30.365,0-45.548,0c-10.58,7.363,2.748,38.635-8.285,45.549c-5.52,0-11.041,0-16.562,0
	c-14.238,1.604-7.736-18.613-8.282-28.986c-0.75-14.215,0.581-30.812,0-41.41c-7.195-5.125-27.5,3.164-45.55,0
	c-11.032,6.918,2.298,38.191-8.282,45.553c-12.423,0-24.847,0-37.27,0c-9.215-28.053-1.707-72.83-4.139-107.668
	c-8.439-9.5-34.388-1.496-49.693-4.139c-4.592,31.596,9.791,83.871-8.277,99.383c-22.305,7.119-11.598-18.77-20.708-24.846
	c-12.423,0-24.847,0-37.264,0c-12.355,0.07,5.838,30.686-12.424,24.846c-14.735-0.17-7.813-21.029-8.284-33.129
	c-0.556-14.232,0.435-30.795,0-41.408c-3.08-9.336-23.227-1.619-33.124-4.139c-11.562,22.842-2.778,53.242-4.146,86.957
	c-12.422,0-24.844,0-37.268,0c0-31.75,0-63.492,0-95.24c-11.042,0-22.083,0-33.127,0c-12.807,0.996,6.477,34.084-12.421,28.986
	c-21.076,5.895-9.517-20.85-12.423-33.125c-13.8,0-27.606,0-41.409,0c-9.316,33.473-1.632,83.943-4.146,124.223
	c-22.082,0-44.167,0-66.249,0c0-19.324,0-38.643,0-57.971c-8.439-9.504-34.388-1.5-49.693-4.143
	c-0.491-11.93,2.263-27.102-4.138-33.125c-27.61,0-55.213,0-82.823,0c-8.704,16.137-2.069,47.617-4.138,70.395
	c-12.424,0-24.848,0-37.271,0c-9.214-28.055-1.706-72.826-4.14-107.664c-11.16-9.541-39.939-1.475-57.97-4.139
	c-11.587,16.021,3.498,58.711-8.285,74.533c-5.52,0-11.043,0-16.562,0c-14.953-1.932-7.887-27.041-8.284-41.408
	c-0.487-17.605,0.38-36.127,0-49.688c-9.796-9.523-37.165-1.484-53.83-4.145c0-28.986,0-57.971,0-86.958
	c-22.137-9.61-62.074-1.419-91.101-4.142c-12.278,48.453,3.955,125.425-8.281,173.916c-9.606-20.76-1.425-59.311-4.142-86.957
	c-18.73-8.875-53.26-1.953-78.678-4.139c6.777-30.242-6.969-39.961-28.985-41.408c0-81.442,0-162.876,0-244.315
	c-29.402-9.244-75.611-1.686-111.803-4.142c-9.535,62.241-1.475,142.079-4.141,211.187c-7.837,7.348-27.348,3.014-41.408,4.14
	c-12.15,37.546,3.93,103.314-8.282,140.789c-21.583,0.688-11.817-28.596-12.423-41.402c-2.272-48.012,9.961-129.107,0-165.637
	c-2.243-8.227-3.998-7.284-8.281-12.425c-10.747-12.892-19.128-25.354-31.058-34.161c0-19.327-2.069-39.686-2.069-59.009
	l0.176,58.377c-8.247,11.717-26.345,21.322-33.304,30.652c-15.767,21.135-8.283,81.11-8.283,128.371c0,42.152,0,85.848,0,120.08
	c-12.423,0-24.847,0-37.267,0c-10.447-50.461-0.021-124.098-4.142-169.774c-30.367,0-60.734,0-91.099,0
	c-12.409,67.647,4.127,164.241-8.281,231.891c-20.755,2.174-11.581-24.873-12.423-41.41c-1.006-19.727,0.774-42.041,0-57.971
	c-4.619-10.57-32.03,1.658-37.269-8.283c0-93.779,0-216.126,0-310.567c0-37.479,5.877-76.529,0-103.522
	c-2.043-9.38-3.538-3.211-8.282-8.281c-5.668-6.058-5.251-20.723-8.281-24.847c-3.157-4.297-7.512-5.874-12.423-8.283
	c0-8.282,0-16.562,0-24.844c-14.073-1.113-9.031-21.336-24.846-20.705c-0.709-11.714,3.562-28.409-8.282-28.987
	c0,0,0.181-39.338,0.181-60.044l-0.181,60.044c-12.152,1.479-12.38,17.988-12.423,28.987c-18.412-3.229-5.472,24.894-28.986,16.562
	c0,11.042,0,22.086,0,33.127c-24.286-4.961-2.673,35.977-24.845,33.127c-4.069,136.44,5.431,294.501,0,426.515
	c-0.619,15.045,9.527,43.246-12.423,49.688c-14.569,0.518-7.974-28.629-8.281-37.27c-4.048-113.579,3.059-231.285,0-339.55
	c1.865-11.531-22.572,3.247-20.704-8.284c0.491-11.929-2.263-27.106,4.139-33.125c-12.795-2.388-14.558-15.81-12.42-33.128
	c-0.625-7.661-14.023-2.542-16.565-8.281c-2.129-11.672,4.837-39.235-14.976-33.223l0.484-43.385l-0.484,43.385
	c-18.131-0.188-19.998,17.57-18.15,37.361c-24.361-3.656-3.427,37.983-24.846,37.271c0,9.66,0,19.322,0,28.985
	c4.174,12.454-9.225,7.338-16.562,8.281c0,81.161,0,164.806,0,240.172c0,65.939,5.806,50.93,0,120.088
	c-0.688,8.223,0.779,30.221-4.143,16.561c-5.751-15.963,7.138-86.82,0-95.24c-9.86-11.637-33.647,0.119-57.971-4.139
	c-7.936,10.008-2.612,33.27-4.143,49.688c-24.843,0-49.689,0-74.535,0c-9.258,1.783-1.678,20.416-4.142,28.984
	c-15.274,3.891-21.46-0.068-45.548,4.146c-0.417,16.646,0.538,37.824,0,57.971c-0.495,18.379,6.012,42.014-8.285,49.691
	c-12.51,3.652-7.743-11.936-8.281-16.562c-7.352-63.359,5.588-132.422,0-190.48c-18.73-8.877-53.26-1.953-78.678-4.145
	c-11.973,37.717,3.693,103.072-8.281,140.793c-17.045-9.186-4.375-48.078-8.282-70.398c-31.746,0-63.494,0-95.241,0
	c0,22.088,0,44.172,0,66.256c-11.173,8.154-36.184,2.463-53.831,4.143c-2.692,20.771,5.426,52.355-4.142,66.254
	c-19.774-0.178-11.617-28.385-12.423-45.551c-0.925-19.736,0.716-42.039,0-57.971c-13.896-9.566-45.478-1.451-66.252-4.146
	c0,35.895,0,71.775,0,107.668c-15.183,0-30.37,0-45.551,0c0-30.365,0-60.732,0-91.1c-4.406-9.4-26.031-1.578-37.269-4.145
	c-16.297-6.631-1.442,17.883-12.423,16.566c-15.181,0-30.367,0-45.548,0c0,16.564,0,33.127,0,49.689
	c-5.34,5.705-17.986,4.1-28.987,4.145c-1.676,17.645,4.01,42.656-4.14,53.83c-57.973,0-115.944,0-173.918,0
	c-3.476-4.811-5.461-11.1-4.141-20.705c-15.517,0.338-33.506,3.139-28.986-16.564c-12.957-0.844-30.4,2.793-37.27-4.139
	c0-22.082,0-44.172,0-66.256c4.36-15.404-13.964-8.121-16.562-16.566c3.378-29.156-4.493-64.234,0-91.096
	c2.74-16.396,8.86-10.186,8.281-24.846c3.964-15.008-17.872-4.211-20.704-12.424c-31.767-53.037,12.479-127.501-8.282-186.34
	c-1.096-13.52,16.068-8.777,16.562-20.704c0.804-18.768,12.026-26.877,16.566-37.27c6.081-13.921,16.293-32.053,12.423-41.406
	c-4.454-10.758-16.471-4.636-24.846-16.565c-11.95,0.159-9.791,23.401-20.705,12.424c-7.713-9.579-12.013-25.81-16.564-33.128
	c-12.13-19.512-28.438-28.286-20.705-66.254c6.902,0,13.805,0,20.705,0c-1.348-9.694-18.063-4.022-20.705-12.423l6.211-2.07
	c-4.142,0.981-8.28,1.239-12.422,4.14l2.069-6.211c-1.156-9.435,0.998-15.565,8.283-16.562c-6.006-6.848-34.12,25.141-28.987-12.423
	c-2.65,15.857-16.298,29.058-28.985,12.423c-1.631,11.647,18.853,17.642-4.139,16.562c-8.672,9.521-9.084-6.233-12.423-16.562
	c-7.743-23.935-20.404-79.812,0-86.958c-10.963-11.61-11.77-29.506-12.424-41.409c-4.82,2.081-13.113,0.69-16.562,4.139
	c-3.355,3.357-1.692,12.372-4.142,16.565c-1.847,3.16-7.653,5.197-8.281,8.282c-2.213,10.904,4.195,19.817,8.281,37.269
	c8.862,37.855,19.788,100.278,0,124.227c0.794,11.471,12.313,22.153,16.562,37.269c1.647,5.863-1.757,16.292,0,24.846
	c1.564,7.608,8.311,12.579,8.284,16.562c-0.103,13.947-8.438,26.703-12.423,37.268c-4.359,18.162,14.005,13.603,12.423,28.988
	c-16.692,17.198-1.104,36.832,0,57.973c1.115,21.465-3.869,44.553-4.143,66.255c-0.328,26.098,4.575,49.435,0,70.395
	c-8.658,2.384-11.817,10.269-24.845,8.281c-1.9,10.524-8.072,16.774-16.563,20.708c-5.724,16.76,8.986,13.096,8.281,24.84
	c0,30.367,0,60.74,0,91.102c3.985,15.031-18.608,3.479-16.565,16.562c0,23.471,0,46.928,0,70.398
	c-9.853,2.885-19.752,6.449-28.985,0c-11.81,6.131-7.373,28.518-33.127,20.703c-8.601,1.064-1.131,18.197-8.282,20.705
	c-20.704,0-62.113,0-62.113,0"/>
</svg>
